<svg xmlns="http://www.w3.org/2000/svg" width="933.333" height="933.333" preserveAspectRatio="xMidYMid meet" version="1.0" viewBox="0 0 700 700"><metadata>Created by potrace 1.14, written by Peter Selinger 2001-2017</metadata><g fill="#000" stroke="none"><path d="M1750 6985 c-385 -51 -745 -204 -1018 -432 -82 -68 -225 -210 -269 -267 -21 -26 -43 -53 -49 -60 -33 -36 -130 -186 -178 -276 -118 -224 -186 -437 -221 -695 -20 -151 -20 -3350 1 -3511 18 -142 71 -354 119 -475 34 -85 116 -253 148 -304 98 -157 178 -257 301 -381 257 -256 563 -432 901 -518 266 -67 183 -64 2060 -62 930 1 1699 4 1710 8 11 3 41 8 66 12 71 10 88 14 174 36 44 12 87 23 95 25 48 10 230 85 324 133 98 50 252 147 315 197 143 117 237 211 340 340 89 113 77 95 138 195 65 108 125 230 168 345 37 100 89 300 100 385 4 30 10 64 13 75 4 11 7 778 9 1705 1 1373 -1 1704 -12 1790 -88 679 -496 1253 -1099 1545 -219 106 -370 152 -631 190 -129 19 -3363 19 -3505 0z" transform="translate(0.000000,700.000000) scale(0.100000,-0.100000)"/></g></svg>